<svg xmlns:xlink="http://www.w3.org/1999/xlink">

    <symbol viewBox="0 0 140 32" id="logo-svg" xmlns="http://www.w3.org/2000/svg">
        <defs>
            <g id="logo_g">
                <path
                    d="M21.3335 14.3444L13.6053 23.9387C12.8693 24.8527 11.3072 25.5997 10.1332 25.5997H8.00017C7.69916 25.5997 7.45316 25.5487 7.26415 25.4607C6.45214 25.1587 5.86613 24.3807 5.86613 23.4667V6.40015H2.13304C0.96002 6.40015 0 7.36017 0 8.53321V29.8669C0 31.0399 0.96002 31.9999 2.13304 31.9999H19.2004C20.3734 31.9999 21.3335 31.0399 21.3335 29.8669V25.5997V14.3444Z" />
                <path
                    d="M31.4669 0H14.3995C13.2265 0 12.2665 0.960026 12.2665 2.13306V6.4002V17.6556L19.9946 8.06125C20.7307 7.14722 22.2927 6.4002 23.4667 6.4002H25.5998C25.9008 6.4002 26.1468 6.4512 26.3358 6.53921C27.1478 6.84122 27.7338 7.61924 27.7338 8.53327V25.6008H31.4669C32.6399 25.6008 33.5999 24.6408 33.5999 23.4677V2.13306C33.5999 0.960026 32.6399 0 31.4669 0Z" />
                <path
                    d="M49.9142 10.081V20.6245H46.9903V19.3899C46.5979 19.8471 46.1138 20.1934 45.5382 20.4285C44.9757 20.6637 44.3739 20.7813 43.7329 20.7813C42.3462 20.7813 41.2408 20.3828 40.4166 19.5858C39.6055 18.7889 39.2 17.6065 39.2 16.0387V10.081H42.2612V15.5879C42.2612 17.2864 42.9742 18.1356 44.4001 18.1356C45.1458 18.1356 45.741 17.9004 46.1858 17.4301C46.6306 16.9467 46.853 16.2346 46.853 15.294V10.081H49.9142Z"
                    fill="#4F4F4F" />
                <path
                    d="M57.8554 20.7813C56.7303 20.7813 55.7165 20.5526 54.8138 20.0954C53.9242 19.625 53.2243 18.9783 52.7141 18.1552C52.217 17.3321 51.9685 16.398 51.9685 15.3528C51.9685 14.3076 52.217 13.3734 52.7141 12.5503C53.2243 11.7272 53.9242 11.087 54.8138 10.6297C55.7165 10.1594 56.7303 9.92424 57.8554 9.92424C58.9673 9.92424 59.9354 10.1594 60.7596 10.6297C61.5968 11.087 62.2051 11.7468 62.5845 12.6091L60.2101 13.8829C59.6607 12.9161 58.8692 12.4327 57.8357 12.4327C57.0377 12.4327 56.3771 12.694 55.8538 13.2166C55.3305 13.7392 55.0689 14.4513 55.0689 15.3528C55.0689 16.2542 55.3305 16.9663 55.8538 17.4889C56.3771 18.0115 57.0377 18.2728 57.8357 18.2728C58.8823 18.2728 59.6738 17.7894 60.2101 16.8226L62.5845 18.116C62.2051 18.9522 61.5968 19.6054 60.7596 20.0758C59.9354 20.5461 58.9673 20.7813 57.8554 20.7813Z"
                    fill="#4F4F4F" />
                <path d="M74.9431 10.081V20.6245H71.8819V12.5895H67.4863V20.6245H64.4447V10.081H74.9431Z"
                    fill="#4F4F4F" />
                <path
                    d="M82.8231 20.7813C81.7111 20.7813 80.7103 20.5526 79.8208 20.0954C78.9443 19.625 78.2575 18.9783 77.7603 18.1552C77.2632 17.3321 77.0147 16.398 77.0147 15.3528C77.0147 14.3076 77.2632 13.3734 77.7603 12.5503C78.2575 11.7272 78.9443 11.087 79.8208 10.6297C80.7103 10.1594 81.7111 9.92424 82.8231 9.92424C83.9351 9.92424 84.9293 10.1594 85.8058 10.6297C86.6823 11.087 87.3691 11.7272 87.8662 12.5503C88.3633 13.3734 88.6119 14.3076 88.6119 15.3528C88.6119 16.398 88.3633 17.3321 87.8662 18.1552C87.3691 18.9783 86.6823 19.625 85.8058 20.0954C84.9293 20.5526 83.9351 20.7813 82.8231 20.7813ZM82.8231 18.2728C83.608 18.2728 84.249 18.0115 84.7461 17.4889C85.2563 16.9532 85.5114 16.2412 85.5114 15.3528C85.5114 14.4643 85.2563 13.7588 84.7461 13.2362C84.249 12.7006 83.608 12.4327 82.8231 12.4327C82.0382 12.4327 81.3906 12.7006 80.8804 13.2362C80.3702 13.7588 80.1151 14.4643 80.1151 15.3528C80.1151 16.2412 80.3702 16.9532 80.8804 17.4889C81.3906 18.0115 82.0382 18.2728 82.8231 18.2728Z"
                    fill="#4F4F4F" />
                <path
                    d="M100.69 10.081V20.6245H97.6284V12.5895H94.2924L94.1943 14.4513C94.142 15.8362 94.0112 16.9859 93.8019 17.9004C93.5925 18.815 93.2524 19.5336 92.7815 20.0562C92.3105 20.5788 91.6564 20.8401 90.8192 20.8401C90.3744 20.8401 89.8445 20.7617 89.2297 20.6049L89.3867 18.0964C89.596 18.1225 89.7464 18.1356 89.838 18.1356C90.2959 18.1356 90.636 17.9723 90.8584 17.6457C91.0939 17.306 91.2509 16.8814 91.3294 16.3718C91.4079 15.8492 91.4667 15.1633 91.506 14.3141L91.6629 10.081H100.69Z"
                    fill="#4F4F4F" />
                <path
                    d="M103.633 10.081H106.675V14.1965H111.267V10.081H114.328V20.6245H111.267V16.6854H106.675V20.6245H103.633V10.081Z"
                    fill="#4F4F4F" />
                <path
                    d="M126.638 10.081V20.6245H123.91V17.6065H121.654L119.652 20.6245H116.395L118.809 17.1753C118.076 16.8879 117.513 16.4763 117.121 15.9407C116.742 15.392 116.552 14.7322 116.552 13.9613C116.552 12.7202 116.997 11.7664 117.886 11.1001C118.789 10.4207 120.025 10.081 121.595 10.081H126.638ZM121.654 12.5699C121 12.5699 120.503 12.6875 120.162 12.9227C119.835 13.1578 119.672 13.5367 119.672 14.0593C119.672 14.5819 119.829 14.9673 120.143 15.2156C120.47 15.4507 120.96 15.5683 121.615 15.5683H123.91V12.5699H121.654Z"
                    fill="#4F4F4F" />
                <path
                    d="M140 10.081V20.6245H137.076V19.3899C136.684 19.8471 136.2 20.1934 135.624 20.4285C135.062 20.6637 134.46 20.7813 133.819 20.7813C132.432 20.7813 131.327 20.3828 130.502 19.5858C129.691 18.7889 129.286 17.6065 129.286 16.0387V10.081H132.347V15.5879C132.347 17.2864 133.06 18.1356 134.486 18.1356C135.232 18.1356 135.827 17.9004 136.272 17.4301C136.716 16.9467 136.939 16.2346 136.939 15.294V10.081H140ZM134.564 8.94436C132.262 8.94436 131.104 7.93182 131.091 5.90674H133.093C133.106 6.36401 133.23 6.7233 133.466 6.9846C133.714 7.23284 134.074 7.35696 134.545 7.35696C135.016 7.35696 135.376 7.23284 135.624 6.9846C135.886 6.7233 136.017 6.36401 136.017 5.90674H138.057C138.044 7.93182 136.88 8.94436 134.564 8.94436Z"
                    fill="#4F4F4F" />
            </g>
        </defs>
        <use xlink:href="#logo_g" transform="translate(0 0 142 32)" />
    </symbol>





    <symbol viewBox="0 0 14 14" id="lf_sb_links_1" xmlns="http://www.w3.org/2000/svg">
        <defs>
            <g id="lf_sb_1">
                <path
                    d="M11.6667 13.6667H2.33337C1.80294 13.6667 1.29423 13.456 0.919161 13.0809C0.544088 12.7058 0.333374 12.1971 0.333374 11.6667V1.00004C0.333374 0.82323 0.403612 0.65366 0.528636 0.528636C0.65366 0.403612 0.82323 0.333374 1.00004 0.333374H10.3334C10.5102 0.333374 10.6798 0.403612 10.8048 0.528636C10.9298 0.65366 11 0.82323 11 1.00004V9.00004H13.6667V11.6667C13.6667 12.1971 13.456 12.7058 13.0809 13.0809C12.7058 13.456 12.1971 13.6667 11.6667 13.6667ZM11 10.3334V11.6667C11 11.8435 11.0703 12.0131 11.1953 12.1381C11.3203 12.2631 11.4899 12.3334 11.6667 12.3334C11.8435 12.3334 12.0131 12.2631 12.1381 12.1381C12.2631 12.0131 12.3334 11.8435 12.3334 11.6667V10.3334H11ZM9.66671 12.3334V1.66671H1.66671V11.6667C1.66671 11.8435 1.73695 12.0131 1.86197 12.1381C1.98699 12.2631 2.15656 12.3334 2.33337 12.3334H9.66671ZM3.00004 3.66671H8.33337V5.00004H3.00004V3.66671ZM3.00004 6.33337H8.33337V7.66671H3.00004V6.33337ZM3.00004 9.00004H6.33337V10.3334H3.00004V9.00004Z" />
            </g>
        </defs>
        <use xlink:href="#lf_sb_1" transform="translate(0 0 14 14)" />
    </symbol>

    <symbol viewBox="0 0 15 12" id="lf_sb_links_2" xmlns="http://www.w3.org/2000/svg">
        <defs>
            <g id="lf_sb_2">
                <path
                    d="M13.6667 2.66667H14.3334V9.33333H13.6667V11.3333C13.6667 11.5101 13.5965 11.6797 13.4714 11.8047C13.3464 11.9298 13.1769 12 13 12H1.00004C0.82323 12 0.65366 11.9298 0.528636 11.8047C0.403612 11.6797 0.333374 11.5101 0.333374 11.3333V0.666667C0.333374 0.489856 0.403612 0.320286 0.528636 0.195262C0.65366 0.0702379 0.82323 0 1.00004 0H13C13.1769 0 13.3464 0.0702379 13.4714 0.195262C13.5965 0.320286 13.6667 0.489856 13.6667 0.666667V2.66667ZM12.3334 9.33333H8.33337C7.44932 9.33333 6.60147 8.98214 5.97635 8.35702C5.35123 7.7319 5.00004 6.88406 5.00004 6C5.00004 5.11595 5.35123 4.2681 5.97635 3.64298C6.60147 3.01786 7.44932 2.66667 8.33337 2.66667H12.3334V1.33333H1.66671V10.6667H12.3334V9.33333ZM13 8V4H8.33337C7.80294 4 7.29423 4.21071 6.91916 4.58579C6.54409 4.96086 6.33337 5.46957 6.33337 6C6.33337 6.53043 6.54409 7.03914 6.91916 7.41421C7.29423 7.78929 7.80294 8 8.33337 8H13ZM8.33337 5.33333H10.3334V6.66667H8.33337V5.33333Z" />
            </g>
        </defs>
        <use xlink:href="#lf_sb_2" transform="translate(0 0 15 12)" />
    </symbol>

    <symbol viewBox="0 0 16 16" id="lf_sb_links_3" xmlns="http://www.w3.org/2000/svg">
        <defs>
            <g id="lf_sb_3">
                <path
                    d="M8 15.5C3.85775 15.5 0.5 12.1423 0.5 8C0.5 3.85775 3.85775 0.5 8 0.5C12.1423 0.5 15.5 3.85775 15.5 8C15.5 12.1423 12.1423 15.5 8 15.5ZM8 14C9.5913 14 11.1174 13.3679 12.2426 12.2426C13.3679 11.1174 14 9.5913 14 8C14 6.4087 13.3679 4.88258 12.2426 3.75736C11.1174 2.63214 9.5913 2 8 2C6.4087 2 4.88258 2.63214 3.75736 3.75736C2.63214 4.88258 2 6.4087 2 8C2 9.5913 2.63214 11.1174 3.75736 12.2426C4.88258 13.3679 6.4087 14 8 14ZM5.375 9.5H9.5C9.59946 9.5 9.69484 9.46049 9.76517 9.39017C9.83549 9.31984 9.875 9.22446 9.875 9.125C9.875 9.02554 9.83549 8.93016 9.76517 8.85984C9.69484 8.78951 9.59946 8.75 9.5 8.75H6.5C6.00272 8.75 5.52581 8.55246 5.17418 8.20083C4.82254 7.8492 4.625 7.37228 4.625 6.875C4.625 6.37772 4.82254 5.90081 5.17418 5.54918C5.52581 5.19754 6.00272 5 6.5 5H7.25V3.5H8.75V5H10.625V6.5H6.5C6.40054 6.5 6.30516 6.53951 6.23484 6.60984C6.16451 6.68016 6.125 6.77554 6.125 6.875C6.125 6.97446 6.16451 7.06984 6.23484 7.14017C6.30516 7.21049 6.40054 7.25 6.5 7.25H9.5C9.99728 7.25 10.4742 7.44754 10.8258 7.79918C11.1775 8.15081 11.375 8.62772 11.375 9.125C11.375 9.62228 11.1775 10.0992 10.8258 10.4508C10.4742 10.8025 9.99728 11 9.5 11H8.75V12.5H7.25V11H5.375V9.5Z" />
            </g>
        </defs>
        <use xlink:href="#lf_sb_3" transform="translate(0 0 16 16)" />
    </symbol>

    <symbol viewBox="0 0 16 14" id="heart_svg" xmlns="http://www.w3.org/2000/svg">
        <defs>
            <g id="heart">
                <path
                    d="M7.99996 13.6667L1.87196 7.53868C0.418628 5.82668 0.494628 3.25868 2.10729 1.64535C2.88064 0.872022 3.91779 0.419714 5.0107 0.379158C6.10361 0.338602 7.17143 0.712798 7.99996 1.42668C8.82765 0.712799 9.89454 0.338072 10.9869 0.377592C12.0792 0.417111 13.1162 0.867957 13.8901 1.63979C14.6641 2.41162 15.1177 3.44741 15.1602 4.53961C15.2027 5.6318 14.8309 6.69971 14.1193 7.52935L7.99996 13.6667ZM13.108 6.66068C13.6005 6.08629 13.8578 5.34697 13.8283 4.59088C13.7988 3.83479 13.4847 3.11777 12.9489 2.58348C12.4131 2.0492 11.6952 1.73712 10.939 1.70977C10.1829 1.68242 9.44429 1.94183 8.87129 2.43602L7.99996 3.18801L7.12863 2.43602C6.55563 1.94183 5.81705 1.68242 5.06088 1.70977C4.30471 1.73712 3.5868 2.0492 3.05099 2.58348C2.51519 3.11777 2.20108 3.83479 2.17158 4.59088C2.14209 5.34697 2.3994 6.08629 2.89196 6.66068L2.96796 6.74868L7.99996 11.7813L13.032 6.74868L13.108 6.66068Z" />
            </g>
        </defs>
        <use xlink:href="#heart" transform="translate(0 0 16 14)" />
    </symbol>

    <symbol viewBox="0 0 284.936 284.936" id="arrow_svg" xmlns="http://www.w3.org/2000/svg">
        <defs>
            <g id="arrow">
                <path
                    d="M277.515,135.9L144.464,2.857C142.565,0.955,140.375,0,137.9,0c-2.472,0-4.659,0.955-6.562,2.857l-14.277,14.275    c-1.903,1.903-2.853,4.089-2.853,6.567c0,2.478,0.95,4.664,2.853,6.567l112.207,112.204L117.062,254.677    c-1.903,1.903-2.853,4.093-2.853,6.564c0,2.477,0.95,4.667,2.853,6.57l14.277,14.271c1.902,1.905,4.089,2.854,6.562,2.854    c2.478,0,4.665-0.951,6.563-2.854l133.051-133.044c1.902-1.902,2.851-4.093,2.851-6.567S279.417,137.807,277.515,135.9z" />
                <path
                    d="M170.732,142.471c0-2.474-0.947-4.665-2.857-6.571L34.833,2.857C32.931,0.955,30.741,0,28.267,0s-4.665,0.955-6.567,2.857    L7.426,17.133C5.52,19.036,4.57,21.222,4.57,23.7c0,2.478,0.95,4.664,2.856,6.567L119.63,142.471L7.426,254.677    c-1.906,1.903-2.856,4.093-2.856,6.564c0,2.477,0.95,4.667,2.856,6.57l14.273,14.271c1.903,1.905,4.093,2.854,6.567,2.854    s4.664-0.951,6.567-2.854l133.042-133.044C169.785,147.136,170.732,144.945,170.732,142.471z" />
            </g>
        </defs>
        <use xlink:href="#arrow" transform="translate(0 0 284.936 284.936)" />
    </symbol>

    <symbol viewBox="0 0 18 15" id="white-heart_svg" xmlns="http://www.w3.org/2000/svg">
        <defs>
            <g id="white-heart">
                <path xmlns="http://www.w3.org/2000/svg"
                    d="M17.6155 4.65307C17.6155 2.08321 15.5322 0 12.9624 0C11.2843 0 9.8188 0.891196 9.0001 2.22306C8.1815 0.891196 6.71539 0 5.03735 0C2.46749 0 0.384766 2.08321 0.384766 4.65307C0.384766 6.05222 1.00476 7.30396 1.98192 8.15638L8.57548 14.7502C8.68809 14.8628 8.84081 14.9261 9.0001 14.9261C9.15939 14.9261 9.31211 14.8628 9.42471 14.7502L16.0183 8.15638C16.9955 7.30396 17.6155 6.05222 17.6155 4.65307Z"
                    fill="white" />
            </g>
        </defs>
        <use xlink:href="#white-heart" transform="translate(0 0 18 15)" />

    </symbol>
    <symbol viewBox="0 0 18 18" id="download_svg" xmlns="http://www.w3.org/2000/svg">
        <defs>
            <g id="download">
                <path xmlns="http://www.w3.org/2000/svg"
                    d="M15.4167 15.4167H2.58333V2.58333H9V0.75H2.58333C2.0971 0.75 1.63079 0.943154 1.28697 1.28697C0.943154 1.63079 0.75 2.0971 0.75 2.58333V15.4167C0.75 15.9029 0.943154 16.3692 1.28697 16.713C1.63079 17.0568 2.0971 17.25 2.58333 17.25H15.4167C16.425 17.25 17.25 16.425 17.25 15.4167V9H15.4167V15.4167ZM10.8333 0.75V2.58333H14.1242L5.11333 11.5942L6.40583 12.8867L15.4167 3.87583V7.16667H17.25V0.75H10.8333Z" />
            </g>
        </defs>
        <use xlink:href="#download" transform="translate(0 0 18 18)" />

    </symbol>
    <symbol viewBox="0 0 51 58" id="downloading_svg" xmlns="http://www.w3.org/2000/svg">
        <defs>
            <g id="download-file">
                <path
                    d="M13.5435 29.7003C13.5435 28.1803 12.4875 27.2723 10.6255 27.2723C9.86554 27.2723 9.35154 27.3463 9.08154 27.4183V32.3003C9.40154 32.3723 9.79354 32.3983 10.3315 32.3983C12.3175 32.3983 13.5435 31.3923 13.5435 29.7003Z" />
                <path
                    d="M25.0753 27.3202C24.2413 27.3202 23.7013 27.3942 23.3813 27.4682V38.2842C23.7013 38.3582 24.2153 38.3582 24.6813 38.3582C28.0653 38.3822 30.2733 36.5182 30.2733 32.5702C30.2993 29.1362 28.2873 27.3202 25.0753 27.3202Z" />
                <path
                    d="M47.1695 20.9663H45.8135V14.4243C45.8124 14.3827 45.8084 14.3413 45.8015 14.3003C45.8037 14.0372 45.7106 13.7821 45.5395 13.5823L34.6535 1.15028L34.6455 1.14228C34.5073 0.99226 34.331 0.882388 34.1355 0.824278L34.0755 0.804277C33.9924 0.783559 33.9071 0.772817 33.8215 0.772278H7.0675C5.8455 0.772278 4.8535 1.76628 4.8535 2.98628V20.9663H3.4975C1.7495 20.9663 0.333496 22.3823 0.333496 24.1303V40.5863C0.333496 42.3323 1.7515 43.7503 3.4975 43.7503H4.8535V55.0163C4.8535 56.2363 5.8455 57.2303 7.0675 57.2303H43.5995C44.8195 57.2303 45.8135 56.2363 45.8135 55.0163V43.7503H47.1695C48.9175 43.7503 50.3335 42.3323 50.3335 40.5863V24.1303C50.3335 22.3823 48.9155 20.9663 47.1695 20.9663ZM7.0675 2.98628H32.7135V14.3143C32.7135 14.9263 33.2095 15.4203 33.8215 15.4203H43.6015V20.9663H7.0675V2.98628ZM34.2475 32.4463C34.2475 35.6103 33.0955 37.7943 31.4975 39.1423C29.7575 40.5883 27.1095 41.2763 23.8715 41.2763C21.9335 41.2763 20.5615 41.1523 19.6275 41.0323V24.7943C21.0015 24.5743 22.7915 24.4523 24.6815 24.4523C27.8195 24.4523 29.8555 25.0163 31.4495 26.2183C33.1675 27.4923 34.2475 29.5283 34.2475 32.4463ZM5.3755 41.1063V24.7943C6.5275 24.5983 8.1475 24.4523 10.4275 24.4523C12.7335 24.4523 14.3775 24.8943 15.4795 25.7763C16.5335 26.6103 17.2435 27.9843 17.2435 29.6023C17.2435 31.2223 16.7055 32.5943 15.7235 33.5263C14.4475 34.7283 12.5595 35.2683 10.3515 35.2683C9.8615 35.2683 9.4195 35.2443 9.0775 35.1943V41.1063H5.3755ZM43.5995 54.4163H7.0675V43.7503H43.5995V54.4163ZM46.8075 27.6403H40.4535V31.4183H46.3895V34.4603H40.4535V41.1063H36.7035V24.5743H46.8075V27.6403Z" />
            </g>
        </defs>
        <use xlink:href="#download-file" transform="translate(0 0 51 58)" />
    </symbol>


    <symbol viewBox="0 0 19 18" id="download_icon" xmlns="http://www.w3.org/2000/svg">
        <defs>
            <g id="downarrow">
                <path
                    d="M0.75 16.4168H17.25V18.2502H0.75V16.4168ZM9.91667 11.0745L15.4817 5.5085L16.7779 6.80466L9 14.5835L1.22208 6.80558L2.51825 5.5085L8.08333 11.0727V0.833496H9.91667V11.0745Z" />
            </g>
        </defs>
        <use xlink:href="#downarrow" transform="translate(0 0 19 18)" />
    </symbol>
    
    <symbol viewBox="0 0 16 18" id="file-download_icon" xmlns="http://www.w3.org/2000/svg">
        <defs>
            <g id="file-download">
                <path xmlns="http://www.w3.org/2000/svg" d="M15.5 12.3334L10.4975 17.3334H1.33333C1.11232 17.3334 0.900358 17.2456 0.744078 17.0893C0.587797 16.933 0.5 16.721 0.5 16.5V1.50002C0.5 1.27901 0.587797 1.06704 0.744078 0.910765C0.900358 0.754484 1.11232 0.666687 1.33333 0.666687H14.6667C14.8877 0.666687 15.0996 0.754484 15.2559 0.910765C15.4122 1.06704 15.5 1.27901 15.5 1.50002V12.3334ZM13.8333 11.5V2.33335H2.16667V15.6667H9.66667V11.5H13.8333Z" fill="#BDBDBD"/>
            </g>
        </defs>
        <use xlink:href="#file-download" transform="translate(0 0 16 18)" />
    </symbol>
      
    <symbol viewBox="0 0 16 16" id="pen_icon" xmlns="http://www.w3.org/2000/svg">
        <defs>
            <g id="pen">
<path xmlns="http://www.w3.org/2000/svg" d="M11.1067 6.07168L9.92833 4.89334L2.16667 12.655V13.8333H3.345L11.1067 6.07168ZM12.285 4.89334L13.4633 3.71501L12.285 2.53667L11.1067 3.71501L12.285 4.89334ZM4.035 15.5H0.5V11.9642L11.6958 0.768342C11.8521 0.612116 12.064 0.524353 12.285 0.524353C12.506 0.524353 12.7179 0.612116 12.8742 0.768342L15.2317 3.12584C15.3879 3.28211 15.4757 3.49404 15.4757 3.71501C15.4757 3.93598 15.3879 4.1479 15.2317 4.30418L4.03583 15.5H4.035Z" />            </g>
        </defs>
        <use xlink:href="#pen" transform="translate(0 0 16 16)" />
    </symbol>

</svg>