<svg width="140" height="32" viewBox="0 0 140 32" fill="none" xmlns="http://www.w3.org/2000/svg">
<path d="M21.3335 14.3444L13.6053 23.9387C12.8693 24.8527 11.3072 25.5997 10.1332 25.5997H8.00017C7.69916 25.5997 7.45316 25.5487 7.26415 25.4607C6.45214 25.1587 5.86613 24.3807 5.86613 23.4667V6.40015H2.13304C0.96002 6.40015 0 7.36017 0 8.53321V29.8669C0 31.0399 0.96002 31.9999 2.13304 31.9999H19.2004C20.3734 31.9999 21.3335 31.0399 21.3335 29.8669V25.5997V14.3444Z" fill="#2DCA73"/>
<path d="M31.4669 0H14.3995C13.2265 0 12.2665 0.960026 12.2665 2.13306V6.4002V17.6556L19.9946 8.06125C20.7307 7.14722 22.2927 6.4002 23.4667 6.4002H25.5998C25.9008 6.4002 26.1468 6.4512 26.3358 6.53921C27.1478 6.84122 27.7338 7.61924 27.7338 8.53327V25.6008H31.4669C32.6399 25.6008 33.5999 24.6408 33.5999 23.4677V2.13306C33.5999 0.960026 32.6399 0 31.4669 0Z" fill="#2DCA73"/>
<path d="M49.9142 10.081V20.6245H46.9903V19.3899C46.5979 19.8471 46.1138 20.1934 45.5382 20.4285C44.9757 20.6637 44.3739 20.7813 43.7329 20.7813C42.3462 20.7813 41.2408 20.3828 40.4166 19.5858C39.6055 18.7889 39.2 17.6065 39.2 16.0387V10.081H42.2612V15.5879C42.2612 17.2864 42.9742 18.1356 44.4001 18.1356C45.1458 18.1356 45.741 17.9004 46.1858 17.4301C46.6306 16.9467 46.853 16.2346 46.853 15.294V10.081H49.9142Z" fill="#4F4F4F"/>
<path d="M57.8554 20.7813C56.7303 20.7813 55.7165 20.5526 54.8138 20.0954C53.9242 19.625 53.2243 18.9783 52.7141 18.1552C52.217 17.3321 51.9685 16.398 51.9685 15.3528C51.9685 14.3076 52.217 13.3734 52.7141 12.5503C53.2243 11.7272 53.9242 11.087 54.8138 10.6297C55.7165 10.1594 56.7303 9.92424 57.8554 9.92424C58.9673 9.92424 59.9354 10.1594 60.7596 10.6297C61.5968 11.087 62.2051 11.7468 62.5845 12.6091L60.2101 13.8829C59.6607 12.9161 58.8692 12.4327 57.8357 12.4327C57.0377 12.4327 56.3771 12.694 55.8538 13.2166C55.3305 13.7392 55.0689 14.4513 55.0689 15.3528C55.0689 16.2542 55.3305 16.9663 55.8538 17.4889C56.3771 18.0115 57.0377 18.2728 57.8357 18.2728C58.8823 18.2728 59.6738 17.7894 60.2101 16.8226L62.5845 18.116C62.2051 18.9522 61.5968 19.6054 60.7596 20.0758C59.9354 20.5461 58.9673 20.7813 57.8554 20.7813Z" fill="#4F4F4F"/>
<path d="M74.9431 10.081V20.6245H71.8819V12.5895H67.4863V20.6245H64.4447V10.081H74.9431Z" fill="#4F4F4F"/>
<path d="M82.8231 20.7813C81.7111 20.7813 80.7103 20.5526 79.8208 20.0954C78.9443 19.625 78.2575 18.9783 77.7603 18.1552C77.2632 17.3321 77.0147 16.398 77.0147 15.3528C77.0147 14.3076 77.2632 13.3734 77.7603 12.5503C78.2575 11.7272 78.9443 11.087 79.8208 10.6297C80.7103 10.1594 81.7111 9.92424 82.8231 9.92424C83.9351 9.92424 84.9293 10.1594 85.8058 10.6297C86.6823 11.087 87.3691 11.7272 87.8662 12.5503C88.3633 13.3734 88.6119 14.3076 88.6119 15.3528C88.6119 16.398 88.3633 17.3321 87.8662 18.1552C87.3691 18.9783 86.6823 19.625 85.8058 20.0954C84.9293 20.5526 83.9351 20.7813 82.8231 20.7813ZM82.8231 18.2728C83.608 18.2728 84.249 18.0115 84.7461 17.4889C85.2563 16.9532 85.5114 16.2412 85.5114 15.3528C85.5114 14.4643 85.2563 13.7588 84.7461 13.2362C84.249 12.7006 83.608 12.4327 82.8231 12.4327C82.0382 12.4327 81.3906 12.7006 80.8804 13.2362C80.3702 13.7588 80.1151 14.4643 80.1151 15.3528C80.1151 16.2412 80.3702 16.9532 80.8804 17.4889C81.3906 18.0115 82.0382 18.2728 82.8231 18.2728Z" fill="#4F4F4F"/>
<path d="M100.69 10.081V20.6245H97.6284V12.5895H94.2924L94.1943 14.4513C94.142 15.8362 94.0112 16.9859 93.8019 17.9004C93.5925 18.815 93.2524 19.5336 92.7815 20.0562C92.3105 20.5788 91.6564 20.8401 90.8192 20.8401C90.3744 20.8401 89.8445 20.7617 89.2297 20.6049L89.3867 18.0964C89.596 18.1225 89.7464 18.1356 89.838 18.1356C90.2959 18.1356 90.636 17.9723 90.8584 17.6457C91.0939 17.306 91.2509 16.8814 91.3294 16.3718C91.4079 15.8492 91.4667 15.1633 91.506 14.3141L91.6629 10.081H100.69Z" fill="#4F4F4F"/>
<path d="M103.633 10.081H106.675V14.1965H111.267V10.081H114.328V20.6245H111.267V16.6854H106.675V20.6245H103.633V10.081Z" fill="#4F4F4F"/>
<path d="M126.638 10.081V20.6245H123.91V17.6065H121.654L119.652 20.6245H116.395L118.809 17.1753C118.076 16.8879 117.513 16.4763 117.121 15.9407C116.742 15.392 116.552 14.7322 116.552 13.9613C116.552 12.7202 116.997 11.7664 117.886 11.1001C118.789 10.4207 120.025 10.081 121.595 10.081H126.638ZM121.654 12.5699C121 12.5699 120.503 12.6875 120.162 12.9227C119.835 13.1578 119.672 13.5367 119.672 14.0593C119.672 14.5819 119.829 14.9673 120.143 15.2156C120.47 15.4507 120.96 15.5683 121.615 15.5683H123.91V12.5699H121.654Z" fill="#4F4F4F"/>
<path d="M140 10.081V20.6245H137.076V19.3899C136.684 19.8471 136.2 20.1934 135.624 20.4285C135.062 20.6637 134.46 20.7813 133.819 20.7813C132.432 20.7813 131.327 20.3828 130.502 19.5858C129.691 18.7889 129.286 17.6065 129.286 16.0387V10.081H132.347V15.5879C132.347 17.2864 133.06 18.1356 134.486 18.1356C135.232 18.1356 135.827 17.9004 136.272 17.4301C136.716 16.9467 136.939 16.2346 136.939 15.294V10.081H140ZM134.564 8.94436C132.262 8.94436 131.104 7.93182 131.091 5.90674H133.093C133.106 6.36401 133.23 6.7233 133.466 6.9846C133.714 7.23284 134.074 7.35696 134.545 7.35696C135.016 7.35696 135.376 7.23284 135.624 6.9846C135.886 6.7233 136.017 6.36401 136.017 5.90674H138.057C138.044 7.93182 136.88 8.94436 134.564 8.94436Z" fill="#4F4F4F"/>
</svg>
